<svg width="3324" height="1684" xmlns="http://www.w3.org/2000/svg" xmlns:xlink="http://www.w3.org/1999/xlink" xml:space="preserve" overflow="hidden"><g transform="translate(-719 -672)"><rect x="722.5" y="675.5" width="3317" height="1677" stroke="#FFFFFF" stroke-width="6.875" stroke-miterlimit="8" fill="#FFFFFF"/><rect x="774" y="819" width="558" height="1487" fill="#394253"/><text fill="#FFFFFF" font-family="Source Sans Pro,Source Sans Pro_MSFontService,sans-serif" font-weight="400" font-size="83" transform="matrix(1 0 0 1 806.262 1541)">Test </text><text fill="#FFFFFF" font-family="Source Sans Pro,Source Sans Pro_MSFontService,sans-serif" font-weight="400" font-size="83" transform="matrix(1 0 0 1 970.116 1541)">case</text><text fill="#FFFFFF" font-family="Source Sans Pro,Source Sans Pro_MSFontService,sans-serif" font-weight="400" font-size="83" transform="matrix(1 0 0 1 806.262 1640)">(</text><text fill="#FFFFFF" font-family="Source Sans Pro,Source Sans Pro_MSFontService,sans-serif" font-weight="400" font-size="83" transform="matrix(1 0 0 1 831.47 1640)">or</text><text fill="#FFFFFF" font-family="Source Sans Pro,Source Sans Pro_MSFontService,sans-serif" font-weight="400" font-size="83" transform="matrix(1 0 0 1 921.418 1640)">method</text><text fill="#FFFFFF" font-family="Source Sans Pro,Source Sans Pro_MSFontService,sans-serif" font-weight="400" font-size="83" transform="matrix(1 0 0 1 1193.55 1640)">)</text><rect x="1364.5" y="1196.5" width="728" height="351" stroke="#222222" stroke-width="6.875" stroke-miterlimit="8" fill="#EEEEEE"/><text font-family="Source Sans Pro,Source Sans Pro_MSFontService,sans-serif" font-weight="400" font-size="83" transform="matrix(1 0 0 1 1415.98 1400)">Input </text><text font-family="Source Sans Pro,Source Sans Pro_MSFontService,sans-serif" font-weight="400" font-size="83" transform="matrix(1 0 0 1 1618.22 1400)">steps</text><rect x="1364.5" y="1577.5" width="728" height="350" stroke="#222222" stroke-width="6.875" stroke-miterlimit="8" fill="#EEEEEE"/><text font-family="Source Sans Pro,Source Sans Pro_MSFontService,sans-serif" font-weight="400" font-size="83" transform="matrix(1 0 0 1 1415.98 1780)">Verify</text><text font-family="Source Sans Pro,Source Sans Pro_MSFontService,sans-serif" font-weight="400" font-size="83" transform="matrix(1 0 0 1 1626.81 1780)">steps</text><rect x="1364.5" y="1956.5" width="728" height="350" stroke="#222222" stroke-width="6.875" stroke-miterlimit="8" fill="#EEEEEE"/><text font-family="Source Sans Pro,Source Sans Pro_MSFontService,sans-serif" font-weight="400" font-size="83" transform="matrix(1 0 0 1 1415.98 2159)">Query </text><text font-family="Source Sans Pro,Source Sans Pro_MSFontService,sans-serif" font-weight="400" font-size="83" transform="matrix(1 0 0 1 1639.99 2159)">steps</text><rect x="1364.5" y="819.5" width="728" height="350" stroke="#222222" stroke-width="6.875" stroke-miterlimit="8" fill="#EEEEEE"/><text font-family="Source Sans Pro,Source Sans Pro_MSFontService,sans-serif" font-weight="400" font-size="83" transform="matrix(1 0 0 1 1402.99 924)">Variables and </text><text font-family="Source Sans Pro,Source Sans Pro_MSFontService,sans-serif" font-weight="400" font-size="83" transform="matrix(1 0 0 1 1402.99 1023)">general steps</text><rect x="2120.5" y="815.5" width="611" height="78" stroke="#222222" stroke-width="6.875" stroke-miterlimit="8" fill="#EEEEEE"/><text font-family="Source Sans Pro,Source Sans Pro_MSFontService,sans-serif" font-weight="400" font-size="64" transform="matrix(1 0 0 1 2159.39 876)">Operation 1</text><rect x="2120.5" y="1091.5" width="611" height="78" stroke="#222222" stroke-width="6.875" stroke-miterlimit="8" fill="#EEEEEE"/><text font-family="Source Sans Pro,Source Sans Pro_MSFontService,sans-serif" font-weight="400" font-size="64" transform="matrix(1 0 0 1 2159.39 1152)">Operation n</text><rect x="2120.5" y="905.5" width="611" height="78.0001" stroke="#222222" stroke-width="6.875" stroke-miterlimit="8" fill="#EEEEEE"/><text font-family="Source Sans Pro,Source Sans Pro_MSFontService,sans-serif" font-weight="400" font-size="64" transform="matrix(1 0 0 1 2159.39 966)">Operation 2</text><rect x="2120.5" y="1001.5" width="611" height="76.9999" stroke="#222222" stroke-width="6.875" stroke-miterlimit="8" fill="#EEEEEE"/><text font-family="Source Sans Pro,Source Sans Pro_MSFontService,sans-serif" font-weight="400" font-size="64" transform="matrix(1 0 0 1 2159.39 1061)">Operation …</text><path d="M2760.5 1208.5 2885.5 1378 2760.5 1547.5Z" stroke="#3B6A98" stroke-width="6.875" stroke-miterlimit="8" fill="#DBE3E8" fill-rule="evenodd"/><rect x="2913" y="1936" width="1130" height="389" fill="#FFFFFF"/><text font-family="Source Sans Pro,Source Sans Pro_MSFontService,sans-serif" font-weight="400" font-size="83" transform="matrix(1 0 0 1 2925.9 2060)">Test </text><text font-family="Source Sans Pro,Source Sans Pro_MSFontService,sans-serif" font-weight="400" font-size="83" transform="matrix(1 0 0 1 3089.76 2060)">for</text><text font-family="Source Sans Pro,Source Sans Pro_MSFontService,sans-serif" font-weight="400" font-size="83" transform="matrix(1 0 0 1 3203.77 2060)">certain</text><text font-family="Source Sans Pro,Source Sans Pro_MSFontService,sans-serif" font-weight="400" font-size="83" transform="matrix(1 0 0 1 3462.73 2060)">conditions</text><text font-family="Source Sans Pro,Source Sans Pro_MSFontService,sans-serif" font-weight="400" font-size="83" transform="matrix(1 0 0 1 2925.9 2159)">and </text><text font-family="Source Sans Pro,Source Sans Pro_MSFontService,sans-serif" font-weight="400" font-size="83" transform="matrix(1 0 0 1 3075.43 2159)">trigger</text><text font-family="Source Sans Pro,Source Sans Pro_MSFontService,sans-serif" font-weight="400" font-size="83" transform="matrix(1 0 0 1 3321.79 2159)">verification</text><text font-family="Source Sans Pro,Source Sans Pro_MSFontService,sans-serif" font-weight="400" font-size="83" transform="matrix(1 0 0 1 3727.99 2159)">failures</text><text font-family="Source Sans Pro,Source Sans Pro_MSFontService,sans-serif" font-weight="400" font-size="83" transform="matrix(1 0 0 1 2925.9 2258)">and </text><text font-family="Source Sans Pro,Source Sans Pro_MSFontService,sans-serif" font-weight="400" font-size="83" transform="matrix(1 0 0 1 3075.43 2258)">successes</text><rect x="774" y="707" width="558" height="96.9999" fill="#ACBACA"/><text fill="#2D2D2D" font-family="Source Sans Pro,Source Sans Pro_MSFontService,sans-serif" font-weight="700" font-size="83" transform="matrix(1 0 0 1 806.262 784)">Test </text><text fill="#2D2D2D" font-family="Source Sans Pro,Source Sans Pro_MSFontService,sans-serif" font-weight="700" font-size="83" transform="matrix(1 0 0 1 979.856 784)">case</text><rect x="1364" y="707" width="728" height="96.9999" fill="#ACBACA"/><text fill="#2D2D2D" font-family="Source Sans Pro,Source Sans Pro_MSFontService,sans-serif" font-weight="700" font-size="83" transform="matrix(1 0 0 1 1396.49 784)">Step</text><rect x="2120" y="707" width="611" height="96.9999" fill="#ACBACA"/><text fill="#2D2D2D" font-family="Source Sans Pro,Source Sans Pro_MSFontService,sans-serif" font-weight="700" font-size="83" transform="matrix(1 0 0 1 2152.9 784)">Operation</text><path d="M1346 1074.17C1346 1065.24 1353.24 1058 1362.17 1058L1444.83 1058C1453.76 1058 1461 1065.24 1461 1074.17L1461 1138.83C1461 1147.76 1453.76 1155 1444.83 1155L1362.17 1155C1353.24 1155 1346 1147.76 1346 1138.83Z" fill="#F7682C" fill-rule="evenodd"/><text fill="#2D2D2D" font-family="Source Sans Pro,Source Sans Pro_MSFontService,sans-serif" font-weight="400" font-size="83" transform="matrix(1 0 0 1 1383.13 1135)">2</text><path d="M750 973.167C750 964.238 757.238 957 766.167 957L848.833 957C857.762 957 865 964.238 865 973.167L865 1037.83C865 1046.76 857.762 1054 848.833 1054L766.167 1054C757.238 1054 750 1046.76 750 1037.83Z" fill="#F7682C" fill-rule="evenodd"/><text fill="#2D2D2D" font-family="Source Sans Pro,Source Sans Pro_MSFontService,sans-serif" font-weight="400" font-size="83" transform="matrix(1 0 0 1 786.938 1034)">1</text><path d="M1346 1454.17C1346 1445.24 1353.24 1438 1362.17 1438L1444.83 1438C1453.76 1438 1461 1445.24 1461 1454.17L1461 1518.83C1461 1527.76 1453.76 1535 1444.83 1535L1362.17 1535C1353.24 1535 1346 1527.76 1346 1518.83Z" fill="#F7682C" fill-rule="evenodd"/><text fill="#2D2D2D" font-family="Source Sans Pro,Source Sans Pro_MSFontService,sans-serif" font-weight="400" font-size="83" transform="matrix(1 0 0 1 1383.13 1515)">3</text><path d="M1346 1830.33C1346 1821.31 1353.31 1814 1362.33 1814L1444.67 1814C1453.69 1814 1461 1821.31 1461 1830.33L1461 1895.67C1461 1904.69 1453.69 1912 1444.67 1912L1362.33 1912C1353.31 1912 1346 1904.69 1346 1895.67Z" fill="#F7682C" fill-rule="evenodd"/><text fill="#2D2D2D" font-family="Source Sans Pro,Source Sans Pro_MSFontService,sans-serif" font-weight="400" font-size="83" transform="matrix(1 0 0 1 1383.13 1891)">4</text><path d="M1346 2210.17C1346 2201.24 1353.24 2194 1362.17 2194L1444.83 2194C1453.76 2194 1461 2201.24 1461 2210.17L1461 2274.83C1461 2283.76 1453.76 2291 1444.83 2291L1362.17 2291C1353.24 2291 1346 2283.76 1346 2274.83Z" fill="#F7682C" fill-rule="evenodd"/><text fill="#2D2D2D" font-family="Source Sans Pro,Source Sans Pro_MSFontService,sans-serif" font-weight="400" font-size="83" transform="matrix(1 0 0 1 1383.13 2271)">5</text><rect x="2120.5" y="1198.5" width="611" height="77.9996" stroke="#222222" stroke-width="6.875" stroke-miterlimit="8" fill="#EEEEEE"/><text font-family="Source Sans Pro,Source Sans Pro_MSFontService,sans-serif" font-weight="400" font-size="64" transform="matrix(1 0 0 1 2159.39 1258)">Operation 1</text><rect x="2120.5" y="1469.5" width="611" height="78" stroke="#222222" stroke-width="6.875" stroke-miterlimit="8" fill="#EEEEEE"/><text font-family="Source Sans Pro,Source Sans Pro_MSFontService,sans-serif" font-weight="400" font-size="64" transform="matrix(1 0 0 1 2159.39 1530)">Operation n</text><rect x="2120.5" y="1288.5" width="611" height="78" stroke="#222222" stroke-width="6.875" stroke-miterlimit="8" fill="#EEEEEE"/><text font-family="Source Sans Pro,Source Sans Pro_MSFontService,sans-serif" font-weight="400" font-size="64" transform="matrix(1 0 0 1 2159.39 1349)">Operation 2</text><rect x="2120.5" y="1379.5" width="611" height="78" stroke="#222222" stroke-width="6.875" stroke-miterlimit="8" fill="#EEEEEE"/><text font-family="Source Sans Pro,Source Sans Pro_MSFontService,sans-serif" font-weight="400" font-size="64" transform="matrix(1 0 0 1 2159.39 1439)">Operation …</text><rect x="2120.5" y="1577.5" width="611" height="78" stroke="#222222" stroke-width="6.875" stroke-miterlimit="8" fill="#EEEEEE"/><text font-family="Source Sans Pro,Source Sans Pro_MSFontService,sans-serif" font-weight="400" font-size="64" transform="matrix(1 0 0 1 2159.39 1637)">Operation 1</text><rect x="2120.5" y="1849.5" width="611" height="78" stroke="#222222" stroke-width="6.875" stroke-miterlimit="8" fill="#EEEEEE"/><text font-family="Source Sans Pro,Source Sans Pro_MSFontService,sans-serif" font-weight="400" font-size="64" transform="matrix(1 0 0 1 2159.39 1910)">Operation n</text><rect x="2120.5" y="1667.5" width="611" height="78" stroke="#222222" stroke-width="6.875" stroke-miterlimit="8" fill="#EEEEEE"/><text font-family="Source Sans Pro,Source Sans Pro_MSFontService,sans-serif" font-weight="400" font-size="64" transform="matrix(1 0 0 1 2159.39 1727)">Operation 2</text><rect x="2120.5" y="1758.5" width="611" height="78" stroke="#222222" stroke-width="6.875" stroke-miterlimit="8" fill="#EEEEEE"/><text font-family="Source Sans Pro,Source Sans Pro_MSFontService,sans-serif" font-weight="400" font-size="64" transform="matrix(1 0 0 1 2159.39 1819)">Operation …</text><rect x="2120.5" y="1956.5" width="611" height="78" stroke="#222222" stroke-width="6.875" stroke-miterlimit="8" fill="#EEEEEE"/><text font-family="Source Sans Pro,Source Sans Pro_MSFontService,sans-serif" font-weight="400" font-size="64" transform="matrix(1 0 0 1 2159.39 2016)">Operation 1</text><rect x="2120.5" y="2228.5" width="611" height="78" stroke="#222222" stroke-width="6.875" stroke-miterlimit="8" fill="#EEEEEE"/><text font-family="Source Sans Pro,Source Sans Pro_MSFontService,sans-serif" font-weight="400" font-size="64" transform="matrix(1 0 0 1 2159.39 2288)">Operation n</text><rect x="2120.5" y="2046.5" width="611" height="78.0001" stroke="#222222" stroke-width="6.875" stroke-miterlimit="8" fill="#EEEEEE"/><text font-family="Source Sans Pro,Source Sans Pro_MSFontService,sans-serif" font-weight="400" font-size="64" transform="matrix(1 0 0 1 2159.39 2107)">Operation 2</text><rect x="2120.5" y="2137.5" width="611" height="78" stroke="#222222" stroke-width="6.875" stroke-miterlimit="8" fill="#EEEEEE"/><text font-family="Source Sans Pro,Source Sans Pro_MSFontService,sans-serif" font-weight="400" font-size="64" transform="matrix(1 0 0 1 2159.39 2198)">Operation …</text><path d="M2760.5 1575.5 2885.5 1745.5 2760.5 1915.5Z" stroke="#3B6A98" stroke-width="6.875" stroke-miterlimit="8" fill="#DBE3E8" fill-rule="evenodd"/><path d="M2760.5 1962.5 2885.5 2132.5 2760.5 2302.5Z" stroke="#3B6A98" stroke-width="6.875" stroke-miterlimit="8" fill="#DBE3E8" fill-rule="evenodd"/><rect x="2913" y="1181" width="1130" height="390" fill="#FFFFFF"/><text font-family="Source Sans Pro,Source Sans Pro_MSFontService,sans-serif" font-weight="400" font-size="83" transform="matrix(1 0 0 1 2925.9 1355)">Send </text><text font-family="Source Sans Pro,Source Sans Pro_MSFontService,sans-serif" font-weight="400" font-size="83" transform="matrix(1 0 0 1 3118.4 1355)">information</text><text font-family="Source Sans Pro,Source Sans Pro_MSFontService,sans-serif" font-weight="400" font-size="83" transform="matrix(1 0 0 1 3545.8 1355)">to</text><text font-family="Source Sans Pro,Source Sans Pro_MSFontService,sans-serif" font-weight="400" font-size="83" transform="matrix(1 0 0 1 3635.17 1355)">the</text><text font-family="Source Sans Pro,Source Sans Pro_MSFontService,sans-serif" font-weight="400" font-size="83" transform="matrix(1 0 0 1 2925.9 1454)">test</text><text font-family="Source Sans Pro,Source Sans Pro_MSFontService,sans-serif" font-weight="400" font-size="83" transform="matrix(1 0 0 1 3073.72 1454)">object</text><text font-family="Source Sans Pro,Source Sans Pro_MSFontService,sans-serif" font-weight="400" font-size="83" transform="matrix(1 0 0 1 3308.04 1454)">(e.g. Avaloq DB)</text><rect x="2913" y="1556" width="1130" height="389" fill="#FFFFFF"/><text font-family="Source Sans Pro,Source Sans Pro_MSFontService,sans-serif" font-weight="400" font-size="83" transform="matrix(1 0 0 1 2925.9 1730)">Retrieve</text><text font-family="Source Sans Pro,Source Sans Pro_MSFontService,sans-serif" font-weight="400" font-size="83" transform="matrix(1 0 0 1 3226.68 1730)">information</text><text font-family="Source Sans Pro,Source Sans Pro_MSFontService,sans-serif" font-weight="400" font-size="83" transform="matrix(1 0 0 1 3654.08 1730)">from</text><text font-family="Source Sans Pro,Source Sans Pro_MSFontService,sans-serif" font-weight="400" font-size="83" transform="matrix(1 0 0 1 2925.9 1829)">test</text><text font-family="Source Sans Pro,Source Sans Pro_MSFontService,sans-serif" font-weight="400" font-size="83" transform="matrix(1 0 0 1 3073.72 1829)">object</text><text font-family="Source Sans Pro,Source Sans Pro_MSFontService,sans-serif" font-weight="400" font-size="83" transform="matrix(1 0 0 1 3308.04 1829)">(e.g. Avaloq DB)</text></g></svg>